<svg width="16" height="17" viewBox="0 0 16 17" fill="none" xmlns="http://www.w3.org/2000/svg">
<g clip-path="url(#clip0_16_1119)">
<path fill-rule="evenodd" clip-rule="evenodd" d="M9.99997 14.5C9.99997 15.0304 9.78925 15.5391 9.41418 15.9142C9.03911 16.2893 8.5304 16.5 7.99997 16.5C7.46954 16.5 6.96083 16.2893 6.58575 15.9142C6.21068 15.5391 5.99997 15.0304 5.99997 14.5C5.99997 13.9696 6.21068 13.4609 6.58575 13.0858C6.96083 12.7107 7.46954 12.5 7.99997 12.5C8.5304 12.5 9.03911 12.7107 9.41418 13.0858C9.78925 13.4609 9.99997 13.9696 9.99997 14.5ZM11.78 5.659C11.6393 5.51855 11.4487 5.43966 11.25 5.43966C11.0512 5.43966 10.8606 5.51855 10.72 5.659L8.74997 7.629V1.25C8.74997 1.05109 8.67095 0.860322 8.5303 0.71967C8.38965 0.579018 8.19888 0.5 7.99997 0.5C7.80106 0.5 7.61029 0.579018 7.46964 0.71967C7.32899 0.860322 7.24997 1.05109 7.24997 1.25V7.629L5.27997 5.659C5.13779 5.52652 4.94975 5.4544 4.75545 5.45783C4.56114 5.46125 4.37576 5.53997 4.23835 5.67738C4.10093 5.81479 4.02222 6.00018 4.01879 6.19448C4.01537 6.38878 4.08749 6.57683 4.21997 6.719L7.46997 9.969L7.99997 10.5L8.52997 9.97L11.78 6.72C11.8497 6.65035 11.905 6.56765 11.9427 6.47662C11.9804 6.3856 11.9998 6.28803 11.9998 6.1895C11.9998 6.09097 11.9804 5.9934 11.9427 5.90238C11.905 5.81135 11.8497 5.72865 11.78 5.659Z" fill="currentColor"/>
</g>
<defs>
<clipPath id="clip0_16_1119">
<rect width="16" height="16" fill="white" transform="translate(0 0.5)"/>
</clipPath>
</defs>
</svg>
