<svg width="15" height="15" viewBox="0 0 15 15" fill="none" xmlns="http://www.w3.org/2000/svg">
<g clip-path="url(#clip0_20_338)">
<path fill-rule="evenodd" clip-rule="evenodd" d="M12.3219 5.39918C12.7822 5.39918 13.2237 5.58204 13.5492 5.90754C13.8747 6.23303 14.0575 6.6745 14.0575 7.13481C14.0575 7.59513 13.8747 8.0366 13.5492 8.36209C13.2237 8.68759 12.7822 8.87045 12.3219 8.87045C11.8616 8.87045 11.4201 8.68759 11.0946 8.36209C10.7691 8.0366 10.5863 7.59513 10.5863 7.13481C10.5863 6.6745 10.7691 6.23303 11.0946 5.90754C11.4201 5.58204 11.8616 5.39918 12.3219 5.39918ZM4.64955 3.85447C4.52766 3.97651 4.4592 4.14193 4.4592 4.31441C4.4592 4.48689 4.52766 4.65232 4.64955 4.77435L6.35915 6.48395H0.823347C0.650728 6.48395 0.485179 6.55253 0.363118 6.67459C0.241058 6.79665 0.172485 6.9622 0.172485 7.13481C0.172485 7.30743 0.241058 7.47298 0.363118 7.59504C0.485179 7.7171 0.650728 7.78568 0.823347 7.78568H6.35915L4.64955 9.49527C4.53458 9.61866 4.47199 9.78185 4.47497 9.95046C4.47794 10.1191 4.54625 10.28 4.6655 10.3992C4.78475 10.5185 4.94563 10.5868 5.11424 10.5897C5.28286 10.5927 5.44605 10.5301 5.56943 10.4152L8.38984 7.59476L8.85065 7.13481L8.3907 6.67487L5.5703 3.85447C5.50986 3.79399 5.43809 3.74601 5.3591 3.71327C5.2801 3.68054 5.19543 3.66369 5.10992 3.66369C5.02442 3.66369 4.93975 3.68054 4.86075 3.71327C4.78176 3.74601 4.70999 3.79399 4.64955 3.85447Z" fill="currentColor"/>
</g>
<defs>
<clipPath id="clip0_20_338">
<rect width="13.8851" height="13.8851" fill="white" transform="matrix(0 -1 1 0 0.172485 14.0774)"/>
</clipPath>
</defs>
</svg>
