<svg width="31" height="31" viewBox="0 0 31 31" fill="none" xmlns="http://www.w3.org/2000/svg">
<path d="M6.91293 7.99801L7.74993 11.563L6.91293 15.1125L10.0284 17.0345L11.9349 20.15L15.4999 19.313L19.0649 20.15L20.9714 17.0345L24.0869 15.1125L23.2499 11.563L24.0869 7.99801L20.9869 6.07601L19.0649 2.96051L15.4999 3.81301L11.9504 2.97601L10.0129 6.07601L6.91293 7.99801ZM15.5154 17.825C13.8711 17.825 12.2941 17.1718 11.1314 16.0091C9.96864 14.8463 9.31543 13.2694 9.31543 11.625C9.31543 9.98067 9.96864 8.40367 11.1314 7.24095C12.2941 6.07822 13.8711 5.42501 15.5154 5.42501C18.9254 5.42501 21.6999 8.19951 21.6999 11.6095C21.6999 15.0505 18.9254 17.825 15.5154 17.825ZM15.4844 16.275C12.9114 16.275 10.8499 14.198 10.8499 11.625C10.8499 9.06751 12.9114 6.97501 15.4844 6.97501C18.0574 6.97501 20.1499 9.06751 20.1499 11.625C20.1499 14.198 18.0574 16.275 15.4844 16.275ZM21.4364 17.98L19.4524 21.452L16.2284 20.7235L20.1499 29.76L22.3199 26.35H26.1949L21.4364 17.98ZM9.50143 18.0885L11.4389 21.576L14.7404 20.7855L10.8499 29.76L8.67993 26.35H4.80493L9.50143 18.0885Z" fill="currentColor"/>
</svg>
