<svg width="27" height="31" viewBox="0 0 27 31" fill="none" xmlns="http://www.w3.org/2000/svg">
<path d="M13.125 0C14.0826 0 15.0307 0.188605 15.9154 0.555045C16.8001 0.921486 17.6039 1.45859 18.281 2.13568C18.9581 2.81277 19.4952 3.6166 19.8616 4.50127C20.2281 5.38593 20.4167 6.33411 20.4167 7.29167V10.2083H24.7917C25.1784 10.2083 25.5494 10.362 25.8229 10.6355C26.0964 10.909 26.25 11.2799 26.25 11.6667V29.1667C26.25 29.5534 26.0964 29.9244 25.8229 30.1979C25.5494 30.4714 25.1784 30.625 24.7917 30.625H1.45833C1.07156 30.625 0.700626 30.4714 0.427136 30.1979C0.153645 29.9244 0 29.5534 0 29.1667V11.6667C0 11.2799 0.153645 10.909 0.427136 10.6355C0.700626 10.362 1.07156 10.2083 1.45833 10.2083H5.83333V7.29167C5.83333 5.3578 6.60156 3.50313 7.96901 2.13568C9.33647 0.768227 11.1911 0 13.125 0ZM20.4167 14.5833H17.5V16.0417C17.5004 16.4134 17.6427 16.7709 17.8979 17.0412C18.1531 17.3114 18.5018 17.4741 18.8729 17.4959C19.2439 17.5177 19.6093 17.3969 19.8943 17.1584C20.1794 16.9198 20.3626 16.5814 20.4065 16.2123L20.4167 16.0417V14.5833ZM8.75 14.5833H5.83333V16.0417C5.83375 16.4134 5.97607 16.7709 6.23124 17.0412C6.4864 17.3114 6.83514 17.4741 7.2062 17.4959C7.57726 17.5177 7.94264 17.3969 8.22767 17.1584C8.51271 16.9198 8.69589 16.5814 8.73979 16.2123L8.75 16.0417V14.5833ZM13.125 2.91667C12.0091 2.9166 10.9353 3.34297 10.1234 4.10854C9.31145 4.8741 8.82276 5.92099 8.75729 7.035L8.75 7.29167V10.2083H17.5V7.29167C17.5001 6.17573 17.0737 5.10196 16.3081 4.29004C15.5426 3.47812 14.4957 2.98943 13.3817 2.92396L13.125 2.91667Z" fill="currentColor"/>
</svg>
