<svg width="18" height="18" viewBox="0 0 18 18" fill="none" xmlns="http://www.w3.org/2000/svg">
<g clip-path="url(#clip0_19_186)">
<path d="M16.125 3H14.5V4H16V15H2.00001V4H3.50001V3H1.87501C1.75813 3.00195 1.64277 3.02691 1.53554 3.07345C1.42831 3.11999 1.33129 3.1872 1.25004 3.27125C1.16878 3.35529 1.10488 3.45451 1.06198 3.56325C1.01908 3.67199 0.99802 3.78812 1.00001 3.905V15.095C0.99802 15.2119 1.01908 15.328 1.06198 15.4367C1.10488 15.5455 1.16878 15.6447 1.25004 15.7288C1.33129 15.8128 1.42831 15.88 1.53554 15.9265C1.64277 15.9731 1.75813 15.998 1.87501 16H16.125C16.2419 15.998 16.3572 15.9731 16.4645 15.9265C16.5717 15.88 16.6687 15.8128 16.75 15.7288C16.8312 15.6447 16.8951 15.5455 16.938 15.4367C16.9809 15.328 17.002 15.2119 17 15.095V3.905C17.002 3.78812 16.9809 3.67199 16.938 3.56325C16.8951 3.45451 16.8312 3.35529 16.75 3.27125C16.6687 3.1872 16.5717 3.11999 16.4645 3.07345C16.3572 3.02691 16.2419 3.00195 16.125 3Z" fill="currentColor"/>
<path d="M4 7H5V8H4V7Z" fill="currentColor"/>
<path d="M7 7H8V8H7V7Z" fill="currentColor"/>
<path d="M10 7H11V8H10V7Z" fill="currentColor"/>
<path d="M13 7H14V8H13V7Z" fill="currentColor"/>
<path d="M4 9.5H5V10.5H4V9.5Z" fill="currentColor"/>
<path d="M7 9.5H8V10.5H7V9.5Z" fill="currentColor"/>
<path d="M10 9.5H11V10.5H10V9.5Z" fill="currentColor"/>
<path d="M13 9.5H14V10.5H13V9.5Z" fill="currentColor"/>
<path d="M4 12H5V13H4V12Z" fill="currentColor"/>
<path d="M7 12H8V13H7V12Z" fill="currentColor"/>
<path d="M10 12H11V13H10V12Z" fill="currentColor"/>
<path d="M13 12H14V13H13V12Z" fill="currentColor"/>
<path d="M5 5C5.13261 5 5.25979 4.94732 5.35355 4.85355C5.44732 4.75979 5.5 4.63261 5.5 4.5V1.5C5.5 1.36739 5.44732 1.24021 5.35355 1.14645C5.25979 1.05268 5.13261 1 5 1C4.86739 1 4.74021 1.05268 4.64645 1.14645C4.55268 1.24021 4.5 1.36739 4.5 1.5V4.5C4.5 4.63261 4.55268 4.75979 4.64645 4.85355C4.74021 4.94732 4.86739 5 5 5Z" fill="currentColor"/>
<path d="M13 5C13.1326 5 13.2598 4.94732 13.3536 4.85355C13.4473 4.75979 13.5 4.63261 13.5 4.5V1.5C13.5 1.36739 13.4473 1.24021 13.3536 1.14645C13.2598 1.05268 13.1326 1 13 1C12.8674 1 12.7402 1.05268 12.6464 1.14645C12.5527 1.24021 12.5 1.36739 12.5 1.5V4.5C12.5 4.63261 12.5527 4.75979 12.6464 4.85355C12.7402 4.94732 12.8674 5 13 5Z" fill="currentColor"/>
<path d="M6.5 3H11.5V4H6.5V3Z" fill="currentColor"/>
</g>
<defs>
<clipPath id="clip0_19_186">
<rect width="18" height="18" fill="white"/>
</clipPath>
</defs>
</svg>
