<svg width="26" height="25" viewBox="0 0 26 25" fill="none" xmlns="http://www.w3.org/2000/svg">
<path d="M8.83125 4.25725C8.01428 5.28659 7.56739 6.56086 7.5625 7.875C7.5625 8.11535 7.46702 8.34586 7.29707 8.51582C7.12711 8.68577 6.8966 8.78125 6.65625 8.78125C3.372 8.78125 2.125 11.0723 2.125 12.4062C2.125 13.1802 2.32075 14.0701 2.92069 14.7552C3.49887 15.415 4.57912 16.0312 6.65625 16.0312H7.5625C7.5625 16.6493 7.61869 17.2565 7.72563 17.8438H6.65625C4.20213 17.8438 2.56362 17.1006 1.55587 15.9479C0.569875 14.8205 0.3125 13.4448 0.3125 12.4062C0.3125 10.2711 2.06156 7.39469 5.80075 7.01225C5.96392 5.58388 6.52823 4.23092 7.42838 3.10994C8.61919 1.65269 10.4625 0.625 13 0.625C14.5406 0.625 16.3368 1.1325 17.7669 2.30338C18.9233 3.2495 19.8114 4.61069 20.1249 6.40325C19.493 6.23361 18.8458 6.12676 18.1928 6.08425C17.9218 5.14891 17.3716 4.31862 16.6159 3.70444C15.5868 2.8885 14.3133 2.44228 13 2.4375C11.0063 2.4375 9.67769 3.22231 8.83125 4.25725ZM25.6875 16.0312C25.6875 17.1023 25.4765 18.163 25.0666 19.1525C24.6568 20.1421 24.056 21.0412 23.2986 21.7986C22.5412 22.556 21.6421 23.1568 20.6525 23.5666C19.663 23.9765 18.6023 24.1875 17.5312 24.1875C16.4602 24.1875 15.3996 23.9765 14.41 23.5666C13.4204 23.1568 12.5213 22.556 11.7639 21.7986C11.0065 21.0412 10.4057 20.1421 9.99586 19.1525C9.58597 18.163 9.375 17.1023 9.375 16.0312C9.375 13.8681 10.2343 11.7935 11.7639 10.2639C13.2935 8.73432 15.3681 7.875 17.5312 7.875C19.6944 7.875 21.769 8.73432 23.2986 10.2639C24.8282 11.7935 25.6875 13.8681 25.6875 16.0312ZM21.7979 12.6709C21.7137 12.5865 21.6137 12.5195 21.5036 12.4738C21.3935 12.4281 21.2755 12.4046 21.1562 12.4046C21.037 12.4046 20.919 12.4281 20.8089 12.4738C20.6988 12.5195 20.5988 12.5865 20.5146 12.6709L15.7188 17.4686L14.5479 16.2959C14.4636 16.2116 14.3636 16.1448 14.2535 16.0992C14.1434 16.0536 14.0254 16.0301 13.9062 16.0301C13.7871 16.0301 13.6691 16.0536 13.559 16.0992C13.4489 16.1448 13.3489 16.2116 13.2646 16.2959C13.1804 16.3801 13.1135 16.4802 13.0679 16.5903C13.0223 16.7003 12.9989 16.8183 12.9989 16.9375C12.9989 17.0567 13.0223 17.1747 13.0679 17.2847C13.1135 17.3948 13.1804 17.4949 13.2646 17.5791L15.0771 19.3916C15.1613 19.476 15.2613 19.543 15.3714 19.5887C15.4815 19.6344 15.5995 19.6579 15.7188 19.6579C15.838 19.6579 15.956 19.6344 16.0661 19.5887C16.1762 19.543 16.2762 19.476 16.3604 19.3916L21.7979 13.9541C21.8823 13.8699 21.9492 13.7699 21.9949 13.6598C22.0406 13.5497 22.0641 13.4317 22.0641 13.3125C22.0641 13.1933 22.0406 13.0753 21.9949 12.9652C21.9492 12.8551 21.8823 12.7551 21.7979 12.6709Z" fill="currentColor"/>
</svg>
