<svg width="29" height="29" viewBox="0 0 29 29" fill="none" xmlns="http://www.w3.org/2000/svg">
<path d="M12.9897 11.1771L11.298 9.45521L13.5032 7.25H9.45529C9.27404 7.77361 8.99209 8.22674 8.60946 8.60938C8.22682 8.99201 7.77369 9.27396 7.25008 9.45521V19.5448C7.95494 19.8066 8.53414 20.2444 8.98766 20.8582C9.44039 21.4729 9.66675 22.1729 9.66675 22.9583C9.66675 23.9653 9.31432 24.8212 8.60946 25.526C7.90459 26.2309 7.04869 26.5833 6.04175 26.5833C5.0348 26.5833 4.1789 26.2309 3.47404 25.526C2.76918 24.8212 2.41675 23.9653 2.41675 22.9583C2.41675 22.1729 2.64311 21.4729 3.09583 20.8582C3.54936 20.2444 4.12855 19.8066 4.83341 19.5448V9.45521C4.12855 9.1934 3.54936 8.75518 3.09583 8.14054C2.64311 7.52671 2.41675 6.82708 2.41675 6.04167C2.41675 5.03472 2.76918 4.17882 3.47404 3.47396C4.1789 2.7691 5.0348 2.41667 6.04175 2.41667C6.82716 2.41667 7.52719 2.64303 8.14183 3.09575C8.75566 3.54928 9.19348 4.12847 9.45529 4.83333H13.5032L11.298 2.62812L12.9897 0.90625L18.1251 6.04167L12.9897 11.1771ZM22.9584 2.41667C23.9654 2.41667 24.8213 2.7691 25.5261 3.47396C26.231 4.17882 26.5834 5.03472 26.5834 6.04167C26.5834 7.04861 26.231 7.90451 25.5261 8.60938C24.8213 9.31424 23.9654 9.66667 22.9584 9.66667C21.9515 9.66667 21.0956 9.31424 20.3907 8.60938C19.6858 7.90451 19.3334 7.04861 19.3334 6.04167C19.3334 5.03472 19.6858 4.17882 20.3907 3.47396C21.0956 2.7691 21.9515 2.41667 22.9584 2.41667ZM18.6084 14.9833L23.7136 20.0885L17.2188 26.5833H12.0834V21.4479L18.6084 14.9833ZM25.0126 18.8198L19.847 13.6542L20.7532 12.7781C21.2365 12.2948 21.8157 12.0531 22.4908 12.0531C23.165 12.0531 23.7338 12.2948 24.197 12.7781L25.8886 14.5C26.3518 14.9632 26.5834 15.5271 26.5834 16.1917C26.5834 16.8562 26.3518 17.4201 25.8886 17.8833L25.0126 18.8198Z" fill="currentColor"/>
</svg>
