<svg width="35" height="35" viewBox="0 0 35 35" fill="none" xmlns="http://www.w3.org/2000/svg">
<path d="M18.6035 27.3048C18.6035 26.8222 18.6602 26.3537 18.7312 25.8853H5.82761V11.6899L17.1839 18.7876L28.5402 11.6899V18.9153C29.5623 19.0857 30.5134 19.4406 31.3793 19.9374V8.8508C31.3793 7.2893 30.1017 6.01172 28.5402 6.01172H5.82761C4.26611 6.01172 2.98853 7.2893 2.98853 8.8508V25.8853C2.98853 27.4468 4.26611 28.7244 5.82761 28.7244H18.7312C18.6602 28.2559 18.6035 27.7875 18.6035 27.3048ZM28.5402 8.8508L17.1839 15.9485L5.82761 8.8508H28.5402ZM25.7012 23.0462V25.8853H31.3793V28.7244H25.7012V31.5634L21.4425 27.3048L25.7012 23.0462Z" fill="currentColor"/>
</svg>
