<svg width="36" height="31" viewBox="0 0 36 31" fill="none" xmlns="http://www.w3.org/2000/svg">
<path d="M27.8086 13.0957C28.2891 13.9395 28.6465 14.8184 28.8809 15.7324C29.1152 16.6465 29.2383 17.5898 29.25 18.5625V20.373L18 26.0156L6.75 20.373C6.75 19.6699 6.75586 19.0137 6.76758 18.4043C6.7793 17.7949 6.83203 17.2031 6.92578 16.6289C7.01953 16.0547 7.16016 15.4805 7.34766 14.9062C7.53516 14.332 7.81641 13.7285 8.19141 13.0957L4.5 11.25V21.5684C4.83984 21.6855 5.14453 21.8496 5.41406 22.0605C5.68359 22.2715 5.92383 22.5176 6.13477 22.7988C6.3457 23.0801 6.49805 23.3848 6.5918 23.7129C6.68555 24.041 6.73828 24.3867 6.75 24.75V30.375H0V24.75C0 24.3984 0.0527344 24.0586 0.158203 23.7305C0.263672 23.4023 0.416016 23.0918 0.615234 22.7988C0.814453 22.5059 1.04883 22.2598 1.31836 22.0605C1.58789 21.8613 1.89844 21.6973 2.25 21.5684V10.125L0 9L18 0L36 9L27.8086 13.0957ZM4.5 24.75C4.5 24.4453 4.38867 24.1816 4.16602 23.959C3.94336 23.7363 3.67969 23.625 3.375 23.625C3.07031 23.625 2.80664 23.7363 2.58398 23.959C2.36133 24.1816 2.25 24.4453 2.25 24.75V28.125H4.5V24.75ZM5.02734 9L18 15.4863L30.9727 9L18 2.51367L5.02734 9ZM27 18.9844C27 18.082 26.9121 17.2441 26.7363 16.4707C26.5605 15.6973 26.25 14.9062 25.8047 14.0977L18 18L10.1953 14.0977C9.80859 14.7773 9.51562 15.4922 9.31641 16.2422C9.11719 16.9922 9.01172 17.7656 9 18.5625V18.9844L18 23.4844L27 18.9844Z" fill="currentColor"/>
</svg>
