<svg width="24" height="24" viewBox="0 0 24 24" fill="none" xmlns="http://www.w3.org/2000/svg">
<path d="M20.33 3.66999C20.1408 3.48216 19.9035 3.35011 19.6442 3.28836C19.3849 3.22662 19.1135 3.23756 18.86 3.31999L4.23 8.19999C3.95867 8.28596 3.71891 8.45042 3.54099 8.67258C3.36307 8.89474 3.25498 9.16465 3.23037 9.44821C3.20576 9.73177 3.26573 10.0163 3.40271 10.2658C3.5397 10.5152 3.74754 10.7186 4 10.85L10.07 13.85L13.07 19.94C13.1906 20.1784 13.3751 20.3785 13.6029 20.518C13.8307 20.6575 14.0929 20.7309 14.36 20.73H14.46C14.7461 20.7089 15.0192 20.6023 15.2439 20.424C15.4686 20.2456 15.6345 20.0038 15.72 19.73L20.67 5.13999C20.7584 4.88792 20.7734 4.61593 20.7132 4.35569C20.653 4.09544 20.5201 3.85765 20.33 3.66999ZM4.85 9.57999L17.62 5.31999L10.53 12.41L4.85 9.57999ZM14.43 19.15L11.59 13.47L18.68 6.37999L14.43 19.15Z" fill="currentColor"/>
</svg>
