<svg>
	<defs>
		<g id="prime_send-svg" width="24" height="24" viewBox="0 0 24 24" fill="none" xmlns="http://www.w3.org/2000/svg">
			<path d="M20.33 3.66999C20.1408 3.48216 19.9035 3.35011 19.6442 3.28836C19.3849 3.22662 19.1135 3.23756 18.86 3.31999L4.23 8.19999C3.95867 8.28596 3.71891 8.45042 3.54099 8.67258C3.36307 8.89474 3.25498 9.16465 3.23037 9.44821C3.20576 9.73177 3.26573 10.0163 3.40271 10.2658C3.5397 10.5152 3.74754 10.7186 4 10.85L10.07 13.85L13.07 19.94C13.1906 20.1784 13.3751 20.3785 13.6029 20.518C13.8307 20.6575 14.0929 20.7309 14.36 20.73H14.46C14.7461 20.7089 15.0192 20.6023 15.2439 20.424C15.4686 20.2456 15.6345 20.0038 15.72 19.73L20.67 5.13999C20.7584 4.88792 20.7734 4.61593 20.7132 4.35569C20.653 4.09544 20.5201 3.85765 20.33 3.66999ZM4.85 9.57999L17.62 5.31999L10.53 12.41L4.85 9.57999ZM14.43 19.15L11.59 13.47L18.68 6.37999L14.43 19.15Z" fill="currentColor" />
		</g>
		<g id="arrow-down-svg" width="16" height="17" viewBox="0 0 16 17" fill="none" xmlns="http://www.w3.org/2000/svg">
			<g clip-path="url(#clip0_16_1119)">
				<path fill-rule="evenodd" clip-rule="evenodd" d="M9.99997 14.5C9.99997 15.0304 9.78925 15.5391 9.41418 15.9142C9.03911 16.2893 8.5304 16.5 7.99997 16.5C7.46954 16.5 6.96083 16.2893 6.58575 15.9142C6.21068 15.5391 5.99997 15.0304 5.99997 14.5C5.99997 13.9696 6.21068 13.4609 6.58575 13.0858C6.96083 12.7107 7.46954 12.5 7.99997 12.5C8.5304 12.5 9.03911 12.7107 9.41418 13.0858C9.78925 13.4609 9.99997 13.9696 9.99997 14.5ZM11.78 5.659C11.6393 5.51855 11.4487 5.43966 11.25 5.43966C11.0512 5.43966 10.8606 5.51855 10.72 5.659L8.74997 7.629V1.25C8.74997 1.05109 8.67095 0.860322 8.5303 0.71967C8.38965 0.579018 8.19888 0.5 7.99997 0.5C7.80106 0.5 7.61029 0.579018 7.46964 0.71967C7.32899 0.860322 7.24997 1.05109 7.24997 1.25V7.629L5.27997 5.659C5.13779 5.52652 4.94975 5.4544 4.75545 5.45783C4.56114 5.46125 4.37576 5.53997 4.23835 5.67738C4.10093 5.81479 4.02222 6.00018 4.01879 6.19448C4.01537 6.38878 4.08749 6.57683 4.21997 6.719L7.46997 9.969L7.99997 10.5L8.52997 9.97L11.78 6.72C11.8497 6.65035 11.905 6.56765 11.9427 6.47662C11.9804 6.3856 11.9998 6.28803 11.9998 6.1895C11.9998 6.09097 11.9804 5.9934 11.9427 5.90238C11.905 5.81135 11.8497 5.72865 11.78 5.659Z" fill="currentColor" />
			</g>
			<defs>
				<clipPath id="clip0_16_1119">
					<rect width="16" height="16" fill="white" transform="translate(0 0.5)" />
				</clipPath>
			</defs>
		</g>
		<g id="award-svg" width="31" height="31" viewBox="0 0 31 31" fill="none" xmlns="http://www.w3.org/2000/svg">
			<path d="M6.91293 7.99801L7.74993 11.563L6.91293 15.1125L10.0284 17.0345L11.9349 20.15L15.4999 19.313L19.0649 20.15L20.9714 17.0345L24.0869 15.1125L23.2499 11.563L24.0869 7.99801L20.9869 6.07601L19.0649 2.96051L15.4999 3.81301L11.9504 2.97601L10.0129 6.07601L6.91293 7.99801ZM15.5154 17.825C13.8711 17.825 12.2941 17.1718 11.1314 16.0091C9.96864 14.8463 9.31543 13.2694 9.31543 11.625C9.31543 9.98067 9.96864 8.40367 11.1314 7.24095C12.2941 6.07822 13.8711 5.42501 15.5154 5.42501C18.9254 5.42501 21.6999 8.19951 21.6999 11.6095C21.6999 15.0505 18.9254 17.825 15.5154 17.825ZM15.4844 16.275C12.9114 16.275 10.8499 14.198 10.8499 11.625C10.8499 9.06751 12.9114 6.97501 15.4844 6.97501C18.0574 6.97501 20.1499 9.06751 20.1499 11.625C20.1499 14.198 18.0574 16.275 15.4844 16.275ZM21.4364 17.98L19.4524 21.452L16.2284 20.7235L20.1499 29.76L22.3199 26.35H26.1949L21.4364 17.98ZM9.50143 18.0885L11.4389 21.576L14.7404 20.7855L10.8499 29.76L8.67993 26.35H4.80493L9.50143 18.0885Z" fill="currentColor" />
		</g>
		<g id="cloud-svg" width="26" height="25" viewBox="0 0 26 25" fill="none" xmlns="http://www.w3.org/2000/svg">
			<path d="M8.83125 4.25725C8.01428 5.28659 7.56739 6.56086 7.5625 7.875C7.5625 8.11535 7.46702 8.34586 7.29707 8.51582C7.12711 8.68577 6.8966 8.78125 6.65625 8.78125C3.372 8.78125 2.125 11.0723 2.125 12.4062C2.125 13.1802 2.32075 14.0701 2.92069 14.7552C3.49887 15.415 4.57912 16.0312 6.65625 16.0312H7.5625C7.5625 16.6493 7.61869 17.2565 7.72563 17.8438H6.65625C4.20213 17.8438 2.56362 17.1006 1.55587 15.9479C0.569875 14.8205 0.3125 13.4448 0.3125 12.4062C0.3125 10.2711 2.06156 7.39469 5.80075 7.01225C5.96392 5.58388 6.52823 4.23092 7.42838 3.10994C8.61919 1.65269 10.4625 0.625 13 0.625C14.5406 0.625 16.3368 1.1325 17.7669 2.30338C18.9233 3.2495 19.8114 4.61069 20.1249 6.40325C19.493 6.23361 18.8458 6.12676 18.1928 6.08425C17.9218 5.14891 17.3716 4.31862 16.6159 3.70444C15.5868 2.8885 14.3133 2.44228 13 2.4375C11.0063 2.4375 9.67769 3.22231 8.83125 4.25725ZM25.6875 16.0312C25.6875 17.1023 25.4765 18.163 25.0666 19.1525C24.6568 20.1421 24.056 21.0412 23.2986 21.7986C22.5412 22.556 21.6421 23.1568 20.6525 23.5666C19.663 23.9765 18.6023 24.1875 17.5312 24.1875C16.4602 24.1875 15.3996 23.9765 14.41 23.5666C13.4204 23.1568 12.5213 22.556 11.7639 21.7986C11.0065 21.0412 10.4057 20.1421 9.99586 19.1525C9.58597 18.163 9.375 17.1023 9.375 16.0312C9.375 13.8681 10.2343 11.7935 11.7639 10.2639C13.2935 8.73432 15.3681 7.875 17.5312 7.875C19.6944 7.875 21.769 8.73432 23.2986 10.2639C24.8282 11.7935 25.6875 13.8681 25.6875 16.0312ZM21.7979 12.6709C21.7137 12.5865 21.6137 12.5195 21.5036 12.4738C21.3935 12.4281 21.2755 12.4046 21.1562 12.4046C21.037 12.4046 20.919 12.4281 20.8089 12.4738C20.6988 12.5195 20.5988 12.5865 20.5146 12.6709L15.7188 17.4686L14.5479 16.2959C14.4636 16.2116 14.3636 16.1448 14.2535 16.0992C14.1434 16.0536 14.0254 16.0301 13.9062 16.0301C13.7871 16.0301 13.6691 16.0536 13.559 16.0992C13.4489 16.1448 13.3489 16.2116 13.2646 16.2959C13.1804 16.3801 13.1135 16.4802 13.0679 16.5903C13.0223 16.7003 12.9989 16.8183 12.9989 16.9375C12.9989 17.0567 13.0223 17.1747 13.0679 17.2847C13.1135 17.3948 13.1804 17.4949 13.2646 17.5791L15.0771 19.3916C15.1613 19.476 15.2613 19.543 15.3714 19.5887C15.4815 19.6344 15.5995 19.6579 15.7188 19.6579C15.838 19.6579 15.956 19.6344 16.0661 19.5887C16.1762 19.543 16.2762 19.476 16.3604 19.3916L21.7979 13.9541C21.8823 13.8699 21.9492 13.7699 21.9949 13.6598C22.0406 13.5497 22.0641 13.4317 22.0641 13.3125C22.0641 13.1933 22.0406 13.0753 21.9949 12.9652C21.9492 12.8551 21.8823 12.7551 21.7979 12.6709Z" fill="currentColor" />
		</g>
		<g id="hear-phone-svg" width="20" height="20" viewBox="0 0 20 20" fill="none" xmlns="http://www.w3.org/2000/svg">
			<path d="M10 0C4.486 0 0 4.486 0 10V14.143C0 15.167 0.897 16 2 16H3C3.26522 16 3.51957 15.8946 3.70711 15.7071C3.89464 15.5196 4 15.2652 4 15V9.857C4 9.59178 3.89464 9.33743 3.70711 9.14989C3.51957 8.96236 3.26522 8.857 3 8.857H2.092C2.648 4.987 5.978 2 10 2C14.022 2 17.352 4.987 17.908 8.857H17C16.7348 8.857 16.4804 8.96236 16.2929 9.14989C16.1054 9.33743 16 9.59178 16 9.857V16C16 17.103 15.103 18 14 18H12V17H8V20H14C16.206 20 18 18.206 18 16C19.103 16 20 15.167 20 14.143V10C20 4.486 15.514 0 10 0Z" fill="currentColor" />
		</g>
		<g id="docuemt-svg" width="24" height="24" viewBox="0 0 24 24" fill="none" xmlns="http://www.w3.org/2000/svg">
			<path d="M19.5 10.3711V19.5C19.5 20.0967 19.2629 20.669 18.841 21.091C18.419 21.5129 17.8467 21.75 17.25 21.75H6.75C6.15326 21.75 5.58097 21.5129 5.15901 21.091C4.73705 20.669 4.5 20.0967 4.5 19.5V4.5C4.5 3.90326 4.73705 3.33097 5.15901 2.90901C5.58097 2.48705 6.15326 2.25 6.75 2.25H11.3789C11.7766 2.25006 12.158 2.40804 12.4392 2.68922L19.0608 9.31078C19.342 9.59202 19.4999 9.97341 19.5 10.3711Z" stroke="white" stroke-width="1.5" stroke-linejoin="round" />
			<path d="M12 2.625V8.25C12 8.64782 12.158 9.02936 12.4393 9.31066C12.7206 9.59196 13.1022 9.75 13.5 9.75H19.125M8.25 13.5H15.75M8.25 17.25H15.75" stroke="white" stroke-width="1.5" stroke-linecap="round" stroke-linejoin="round" />
		</g>
		<g id="web-svg" width="30" height="30" viewBox="0 0 30 30" fill="none" xmlns="http://www.w3.org/2000/svg">
			<path d="M26.25 25C26.25 25.3315 26.1183 25.6495 25.8839 25.8839C25.6495 26.1183 25.3315 26.25 25 26.25H5C4.66848 26.25 4.35054 26.1183 4.11612 25.8839C3.8817 25.6495 3.75 25.3315 3.75 25V5C3.75 4.66848 3.8817 4.35054 4.11612 4.11612C4.35054 3.8817 4.66848 3.75 5 3.75H25C25.3315 3.75 25.6495 3.8817 25.8839 4.11612C26.1183 4.35054 26.25 4.66848 26.25 5V25ZM13.75 6.25H6.25V23.75H13.75V6.25ZM23.75 16.25H16.25V23.75H23.75V16.25ZM23.75 6.25H16.25V13.75H23.75V6.25Z" fill="currentColor" />
		</g>
		<g id="arrow-right-svg" width="15" height="15" viewBox="0 0 15 15" fill="none" xmlns="http://www.w3.org/2000/svg">
			<g clip-path="url(#clip0_20_338)">
				<path fill-rule="evenodd" clip-rule="evenodd" d="M12.3219 5.39918C12.7822 5.39918 13.2237 5.58204 13.5492 5.90754C13.8747 6.23303 14.0575 6.6745 14.0575 7.13481C14.0575 7.59513 13.8747 8.0366 13.5492 8.36209C13.2237 8.68759 12.7822 8.87045 12.3219 8.87045C11.8616 8.87045 11.4201 8.68759 11.0946 8.36209C10.7691 8.0366 10.5863 7.59513 10.5863 7.13481C10.5863 6.6745 10.7691 6.23303 11.0946 5.90754C11.4201 5.58204 11.8616 5.39918 12.3219 5.39918ZM4.64955 3.85447C4.52766 3.97651 4.4592 4.14193 4.4592 4.31441C4.4592 4.48689 4.52766 4.65232 4.64955 4.77435L6.35915 6.48395H0.823347C0.650728 6.48395 0.485179 6.55253 0.363118 6.67459C0.241058 6.79665 0.172485 6.9622 0.172485 7.13481C0.172485 7.30743 0.241058 7.47298 0.363118 7.59504C0.485179 7.7171 0.650728 7.78568 0.823347 7.78568H6.35915L4.64955 9.49527C4.53458 9.61866 4.47199 9.78185 4.47497 9.95046C4.47794 10.1191 4.54625 10.28 4.6655 10.3992C4.78475 10.5185 4.94563 10.5868 5.11424 10.5897C5.28286 10.5927 5.44605 10.5301 5.56943 10.4152L8.38984 7.59476L8.85065 7.13481L8.3907 6.67487L5.5703 3.85447C5.50986 3.79399 5.43809 3.74601 5.3591 3.71327C5.2801 3.68054 5.19543 3.66369 5.10992 3.66369C5.02442 3.66369 4.93975 3.68054 4.86075 3.71327C4.78176 3.74601 4.70999 3.79399 4.64955 3.85447Z" fill="currentColor" />
			</g>
			<defs>
				<clipPath id="clip0_20_338">
					<rect width="13.8851" height="13.8851" fill="white" transform="matrix(0 -1 1 0 0.172485 14.0774)" />
				</clipPath>
			</defs>
		</g>
		<g id="code-svg" width="37" height="37" viewBox="0 0 37 37" fill="none" xmlns="http://www.w3.org/2000/svg">
			<path d="M12.3334 27.75L3.08337 18.5L12.3334 9.25L14.5302 11.4469L7.43858 18.5385L14.4917 25.5917L12.3334 27.75ZM24.6667 27.75L22.4698 25.5531L29.5615 18.4615L22.5084 11.4083L24.6667 9.25L33.9167 18.5L24.6667 27.75Z" fill="currentColor" />
		</g>
		<g id="edit-svg" width="29" height="29" viewBox="0 0 29 29" fill="none" xmlns="http://www.w3.org/2000/svg">
			<path d="M12.9897 11.1771L11.298 9.45521L13.5032 7.25H9.45529C9.27404 7.77361 8.99209 8.22674 8.60946 8.60938C8.22682 8.99201 7.77369 9.27396 7.25008 9.45521V19.5448C7.95494 19.8066 8.53414 20.2444 8.98766 20.8582C9.44039 21.4729 9.66675 22.1729 9.66675 22.9583C9.66675 23.9653 9.31432 24.8212 8.60946 25.526C7.90459 26.2309 7.04869 26.5833 6.04175 26.5833C5.0348 26.5833 4.1789 26.2309 3.47404 25.526C2.76918 24.8212 2.41675 23.9653 2.41675 22.9583C2.41675 22.1729 2.64311 21.4729 3.09583 20.8582C3.54936 20.2444 4.12855 19.8066 4.83341 19.5448V9.45521C4.12855 9.1934 3.54936 8.75518 3.09583 8.14054C2.64311 7.52671 2.41675 6.82708 2.41675 6.04167C2.41675 5.03472 2.76918 4.17882 3.47404 3.47396C4.1789 2.7691 5.0348 2.41667 6.04175 2.41667C6.82716 2.41667 7.52719 2.64303 8.14183 3.09575C8.75566 3.54928 9.19348 4.12847 9.45529 4.83333H13.5032L11.298 2.62812L12.9897 0.90625L18.1251 6.04167L12.9897 11.1771ZM22.9584 2.41667C23.9654 2.41667 24.8213 2.7691 25.5261 3.47396C26.231 4.17882 26.5834 5.03472 26.5834 6.04167C26.5834 7.04861 26.231 7.90451 25.5261 8.60938C24.8213 9.31424 23.9654 9.66667 22.9584 9.66667C21.9515 9.66667 21.0956 9.31424 20.3907 8.60938C19.6858 7.90451 19.3334 7.04861 19.3334 6.04167C19.3334 5.03472 19.6858 4.17882 20.3907 3.47396C21.0956 2.7691 21.9515 2.41667 22.9584 2.41667ZM18.6084 14.9833L23.7136 20.0885L17.2188 26.5833H12.0834V21.4479L18.6084 14.9833ZM25.0126 18.8198L19.847 13.6542L20.7532 12.7781C21.2365 12.2948 21.8157 12.0531 22.4908 12.0531C23.165 12.0531 23.7338 12.2948 24.197 12.7781L25.8886 14.5C26.3518 14.9632 26.5834 15.5271 26.5834 16.1917C26.5834 16.8562 26.3518 17.4201 25.8886 17.8833L25.0126 18.8198Z" fill="currentColor" />
		</g>
		<g id="hat-svg" width="36" height="31" viewBox="0 0 36 31" fill="none" xmlns="http://www.w3.org/2000/svg">
			<path d="M27.8086 13.0957C28.2891 13.9395 28.6465 14.8184 28.8809 15.7324C29.1152 16.6465 29.2383 17.5898 29.25 18.5625V20.373L18 26.0156L6.75 20.373C6.75 19.6699 6.75586 19.0137 6.76758 18.4043C6.7793 17.7949 6.83203 17.2031 6.92578 16.6289C7.01953 16.0547 7.16016 15.4805 7.34766 14.9062C7.53516 14.332 7.81641 13.7285 8.19141 13.0957L4.5 11.25V21.5684C4.83984 21.6855 5.14453 21.8496 5.41406 22.0605C5.68359 22.2715 5.92383 22.5176 6.13477 22.7988C6.3457 23.0801 6.49805 23.3848 6.5918 23.7129C6.68555 24.041 6.73828 24.3867 6.75 24.75V30.375H0V24.75C0 24.3984 0.0527344 24.0586 0.158203 23.7305C0.263672 23.4023 0.416016 23.0918 0.615234 22.7988C0.814453 22.5059 1.04883 22.2598 1.31836 22.0605C1.58789 21.8613 1.89844 21.6973 2.25 21.5684V10.125L0 9L18 0L36 9L27.8086 13.0957ZM4.5 24.75C4.5 24.4453 4.38867 24.1816 4.16602 23.959C3.94336 23.7363 3.67969 23.625 3.375 23.625C3.07031 23.625 2.80664 23.7363 2.58398 23.959C2.36133 24.1816 2.25 24.4453 2.25 24.75V28.125H4.5V24.75ZM5.02734 9L18 15.4863L30.9727 9L18 2.51367L5.02734 9ZM27 18.9844C27 18.082 26.9121 17.2441 26.7363 16.4707C26.5605 15.6973 26.25 14.9062 25.8047 14.0977L18 18L10.1953 14.0977C9.80859 14.7773 9.51562 15.4922 9.31641 16.2422C9.11719 16.9922 9.01172 17.7656 9 18.5625V18.9844L18 23.4844L27 18.9844Z" fill="currentColor" />
		</g>
		<g id="bag-svg" width="27" height="31" viewBox="0 0 27 31" fill="none" xmlns="http://www.w3.org/2000/svg">
			<path d="M13.125 0C14.0826 0 15.0307 0.188605 15.9154 0.555045C16.8001 0.921486 17.6039 1.45859 18.281 2.13568C18.9581 2.81277 19.4952 3.6166 19.8616 4.50127C20.2281 5.38593 20.4167 6.33411 20.4167 7.29167V10.2083H24.7917C25.1784 10.2083 25.5494 10.362 25.8229 10.6355C26.0964 10.909 26.25 11.2799 26.25 11.6667V29.1667C26.25 29.5534 26.0964 29.9244 25.8229 30.1979C25.5494 30.4714 25.1784 30.625 24.7917 30.625H1.45833C1.07156 30.625 0.700626 30.4714 0.427136 30.1979C0.153645 29.9244 0 29.5534 0 29.1667V11.6667C0 11.2799 0.153645 10.909 0.427136 10.6355C0.700626 10.362 1.07156 10.2083 1.45833 10.2083H5.83333V7.29167C5.83333 5.3578 6.60156 3.50313 7.96901 2.13568C9.33647 0.768227 11.1911 0 13.125 0ZM20.4167 14.5833H17.5V16.0417C17.5004 16.4134 17.6427 16.7709 17.8979 17.0412C18.1531 17.3114 18.5018 17.4741 18.8729 17.4959C19.2439 17.5177 19.6093 17.3969 19.8943 17.1584C20.1794 16.9198 20.3626 16.5814 20.4065 16.2123L20.4167 16.0417V14.5833ZM8.75 14.5833H5.83333V16.0417C5.83375 16.4134 5.97607 16.7709 6.23124 17.0412C6.4864 17.3114 6.83514 17.4741 7.2062 17.4959C7.57726 17.5177 7.94264 17.3969 8.22767 17.1584C8.51271 16.9198 8.69589 16.5814 8.73979 16.2123L8.75 16.0417V14.5833ZM13.125 2.91667C12.0091 2.9166 10.9353 3.34297 10.1234 4.10854C9.31145 4.8741 8.82276 5.92099 8.75729 7.035L8.75 7.29167V10.2083H17.5V7.29167C17.5001 6.17573 17.0737 5.10196 16.3081 4.29004C15.5426 3.47812 14.4957 2.98943 13.3817 2.92396L13.125 2.91667Z" fill="currentColor" />
		</g>
		<g id="email-svg" width="35" height="35" viewBox="0 0 35 35" fill="none" xmlns="http://www.w3.org/2000/svg">
			<path d="M18.6035 27.3048C18.6035 26.8222 18.6602 26.3537 18.7312 25.8853H5.82761V11.6899L17.1839 18.7876L28.5402 11.6899V18.9153C29.5623 19.0857 30.5134 19.4406 31.3793 19.9374V8.8508C31.3793 7.2893 30.1017 6.01172 28.5402 6.01172H5.82761C4.26611 6.01172 2.98853 7.2893 2.98853 8.8508V25.8853C2.98853 27.4468 4.26611 28.7244 5.82761 28.7244H18.7312C18.6602 28.2559 18.6035 27.7875 18.6035 27.3048ZM28.5402 8.8508L17.1839 15.9485L5.82761 8.8508H28.5402ZM25.7012 23.0462V25.8853H31.3793V28.7244H25.7012V31.5634L21.4425 27.3048L25.7012 23.0462Z" fill="currentColor" />
		</g>
		<g id="whatsapp-svg" width="37" height="37" viewBox="0 0 37 37" fill="none" xmlns="http://www.w3.org/2000/svg">
			<path d="M29.3689 7.56984C27.9555 6.14214 26.2719 5.01016 24.4165 4.23992C22.561 3.46967 20.5707 3.07659 18.5618 3.08359C10.1443 3.08359 3.28386 9.944 3.28386 18.3615C3.28386 21.0594 3.99302 23.6803 5.31886 25.9928L3.16052 33.9169L11.2543 31.7894C13.4897 33.0073 16.0026 33.6548 18.5618 33.6548C26.9793 33.6548 33.8397 26.7944 33.8397 18.3769C33.8397 14.2915 32.2518 10.4528 29.3689 7.56984ZM18.5618 31.0648C16.2801 31.0648 14.0447 30.4482 12.0868 29.2919L11.6243 29.0144L6.81427 30.2786L8.09386 25.5919L7.78552 25.114C6.51788 23.0897 5.84478 20.7499 5.84302 18.3615C5.84302 11.3623 11.5472 5.65817 18.5464 5.65817C21.938 5.65817 25.1293 6.984 27.5189 9.389C28.7021 10.5668 29.6397 11.9677 30.2775 13.5105C30.9153 15.0534 31.2405 16.7075 31.2343 18.3769C31.2651 25.3761 25.5609 31.0648 18.5618 31.0648ZM25.5301 21.5682C25.1447 21.3832 23.2639 20.4582 22.9247 20.3194C22.5701 20.1961 22.3234 20.1344 22.0614 20.5044C21.7993 20.8898 21.0747 21.7532 20.8589 21.9998C20.643 22.2619 20.4118 22.2928 20.0264 22.0923C19.6409 21.9073 18.4076 21.4911 16.9584 20.1961C15.8176 19.1786 15.0622 17.9298 14.8309 17.5444C14.6151 17.159 14.8001 16.9586 15.0005 16.7582C15.1701 16.5886 15.3859 16.3111 15.5709 16.0953C15.7559 15.8794 15.833 15.7098 15.9564 15.4632C16.0797 15.2011 16.018 14.9853 15.9255 14.8003C15.833 14.6153 15.0622 12.7344 14.7539 11.9636C14.4455 11.2236 14.1218 11.3161 13.8905 11.3007H13.1505C12.8884 11.3007 12.4876 11.3932 12.133 11.7786C11.7939 12.164 10.8072 13.089 10.8072 14.9698C10.8072 16.8507 12.1793 18.6698 12.3643 18.9165C12.5493 19.1786 15.0622 23.0328 18.8855 24.6823C19.7951 25.0832 20.5043 25.3144 21.0593 25.484C21.9689 25.7769 22.8014 25.7307 23.4643 25.6382C24.2043 25.5303 25.7305 24.7132 26.0389 23.819C26.3626 22.9248 26.3626 22.1694 26.2547 21.9998C26.1468 21.8303 25.9155 21.7532 25.5301 21.5682Z" fill="currentColor" />
		</g>
		<g id="messanger-svg" width="30" height="30" viewBox="0 0 30 30" fill="none" xmlns="http://www.w3.org/2000/svg">
			<path fill-rule="evenodd" clip-rule="evenodd" d="M16.1775 18.0163L12.9775 14.6912L6.8125 18.1L13.57 10.93L16.77 14.255L22.9325 10.8463L16.1763 18.0163H16.1775ZM14.8738 2.5C8.04 2.5 2.5 7.68 2.5 14.0712C2.5 17.7063 4.2925 20.95 7.0975 23.0713V27.5L11.32 25.1575C12.445 25.4725 13.6388 25.6425 14.8738 25.6425C21.7087 25.6425 27.2487 20.4613 27.2487 14.0712C27.2487 7.68 21.7087 2.5 14.8738 2.5Z" fill="currentColor" />
		</g>
		<g id="calendar" width="18" height="18" viewBox="0 0 18 18" fill="none" xmlns="http://www.w3.org/2000/svg">
			<g clip-path="url(#clip0_19_186)">
				<path d="M16.125 3H14.5V4H16V15H2.00001V4H3.50001V3H1.87501C1.75813 3.00195 1.64277 3.02691 1.53554 3.07345C1.42831 3.11999 1.33129 3.1872 1.25004 3.27125C1.16878 3.35529 1.10488 3.45451 1.06198 3.56325C1.01908 3.67199 0.99802 3.78812 1.00001 3.905V15.095C0.99802 15.2119 1.01908 15.328 1.06198 15.4367C1.10488 15.5455 1.16878 15.6447 1.25004 15.7288C1.33129 15.8128 1.42831 15.88 1.53554 15.9265C1.64277 15.9731 1.75813 15.998 1.87501 16H16.125C16.2419 15.998 16.3572 15.9731 16.4645 15.9265C16.5717 15.88 16.6687 15.8128 16.75 15.7288C16.8312 15.6447 16.8951 15.5455 16.938 15.4367C16.9809 15.328 17.002 15.2119 17 15.095V3.905C17.002 3.78812 16.9809 3.67199 16.938 3.56325C16.8951 3.45451 16.8312 3.35529 16.75 3.27125C16.6687 3.1872 16.5717 3.11999 16.4645 3.07345C16.3572 3.02691 16.2419 3.00195 16.125 3Z" fill="currentColor" />
				<path d="M4 7H5V8H4V7Z" fill="currentColor" />
				<path d="M7 7H8V8H7V7Z" fill="currentColor" />
				<path d="M10 7H11V8H10V7Z" fill="currentColor" />
				<path d="M13 7H14V8H13V7Z" fill="currentColor" />
				<path d="M4 9.5H5V10.5H4V9.5Z" fill="currentColor" />
				<path d="M7 9.5H8V10.5H7V9.5Z" fill="currentColor" />
				<path d="M10 9.5H11V10.5H10V9.5Z" fill="currentColor" />
				<path d="M13 9.5H14V10.5H13V9.5Z" fill="currentColor" />
				<path d="M4 12H5V13H4V12Z" fill="currentColor" />
				<path d="M7 12H8V13H7V12Z" fill="currentColor" />
				<path d="M10 12H11V13H10V12Z" fill="currentColor" />
				<path d="M13 12H14V13H13V12Z" fill="currentColor" />
				<path d="M5 5C5.13261 5 5.25979 4.94732 5.35355 4.85355C5.44732 4.75979 5.5 4.63261 5.5 4.5V1.5C5.5 1.36739 5.44732 1.24021 5.35355 1.14645C5.25979 1.05268 5.13261 1 5 1C4.86739 1 4.74021 1.05268 4.64645 1.14645C4.55268 1.24021 4.5 1.36739 4.5 1.5V4.5C4.5 4.63261 4.55268 4.75979 4.64645 4.85355C4.74021 4.94732 4.86739 5 5 5Z" fill="currentColor" />
				<path d="M13 5C13.1326 5 13.2598 4.94732 13.3536 4.85355C13.4473 4.75979 13.5 4.63261 13.5 4.5V1.5C13.5 1.36739 13.4473 1.24021 13.3536 1.14645C13.2598 1.05268 13.1326 1 13 1C12.8674 1 12.7402 1.05268 12.6464 1.14645C12.5527 1.24021 12.5 1.36739 12.5 1.5V4.5C12.5 4.63261 12.5527 4.75979 12.6464 4.85355C12.7402 4.94732 12.8674 5 13 5Z" fill="currentColor" />
				<path d="M6.5 3H11.5V4H6.5V3Z" fill="currentColor" />
			</g>
			<defs>
				<clipPath id="clip0_19_186">
					<rect width="18" height="18" fill="white" />
				</clipPath>
			</defs>
		</g>
	</defs>
</svg>
