<svg width="37" height="37" viewBox="0 0 37 37" fill="none" xmlns="http://www.w3.org/2000/svg">
<path d="M29.3689 7.56984C27.9555 6.14214 26.2719 5.01016 24.4165 4.23992C22.561 3.46967 20.5707 3.07659 18.5618 3.08359C10.1443 3.08359 3.28386 9.944 3.28386 18.3615C3.28386 21.0594 3.99302 23.6803 5.31886 25.9928L3.16052 33.9169L11.2543 31.7894C13.4897 33.0073 16.0026 33.6548 18.5618 33.6548C26.9793 33.6548 33.8397 26.7944 33.8397 18.3769C33.8397 14.2915 32.2518 10.4528 29.3689 7.56984ZM18.5618 31.0648C16.2801 31.0648 14.0447 30.4482 12.0868 29.2919L11.6243 29.0144L6.81427 30.2786L8.09386 25.5919L7.78552 25.114C6.51788 23.0897 5.84478 20.7499 5.84302 18.3615C5.84302 11.3623 11.5472 5.65817 18.5464 5.65817C21.938 5.65817 25.1293 6.984 27.5189 9.389C28.7021 10.5668 29.6397 11.9677 30.2775 13.5105C30.9153 15.0534 31.2405 16.7075 31.2343 18.3769C31.2651 25.3761 25.5609 31.0648 18.5618 31.0648ZM25.5301 21.5682C25.1447 21.3832 23.2639 20.4582 22.9247 20.3194C22.5701 20.1961 22.3234 20.1344 22.0614 20.5044C21.7993 20.8898 21.0747 21.7532 20.8589 21.9998C20.643 22.2619 20.4118 22.2928 20.0264 22.0923C19.6409 21.9073 18.4076 21.4911 16.9584 20.1961C15.8176 19.1786 15.0622 17.9298 14.8309 17.5444C14.6151 17.159 14.8001 16.9586 15.0005 16.7582C15.1701 16.5886 15.3859 16.3111 15.5709 16.0953C15.7559 15.8794 15.833 15.7098 15.9564 15.4632C16.0797 15.2011 16.018 14.9853 15.9255 14.8003C15.833 14.6153 15.0622 12.7344 14.7539 11.9636C14.4455 11.2236 14.1218 11.3161 13.8905 11.3007H13.1505C12.8884 11.3007 12.4876 11.3932 12.133 11.7786C11.7939 12.164 10.8072 13.089 10.8072 14.9698C10.8072 16.8507 12.1793 18.6698 12.3643 18.9165C12.5493 19.1786 15.0622 23.0328 18.8855 24.6823C19.7951 25.0832 20.5043 25.3144 21.0593 25.484C21.9689 25.7769 22.8014 25.7307 23.4643 25.6382C24.2043 25.5303 25.7305 24.7132 26.0389 23.819C26.3626 22.9248 26.3626 22.1694 26.2547 21.9998C26.1468 21.8303 25.9155 21.7532 25.5301 21.5682Z" fill="currentColor"/>
</svg>
